<?xml version="1.0" encoding="utf-8"?>
<!-- Generator: Adobe Illustrator 17.1.0, SVG Export Plug-In . SVG Version: 6.00 Build 0)  -->
<!DOCTYPE svg PUBLIC "-//W3C//DTD SVG 1.1//EN" "http://www.w3.org/Graphics/SVG/1.1/DTD/svg11.dtd">
<svg version="1.1" xmlns="http://www.w3.org/2000/svg" xmlns:xlink="http://www.w3.org/1999/xlink" x="0px" y="0px"
	 viewBox="0 0 432 504" enable-background="new 0 0 432 504" xml:space="preserve">
<g id="Layer_1">
</g>
<g id="background_circle">
	<path fill="#FFFFFF" stroke="#000000" stroke-miterlimit="10" d="M217.2,182.7c-37.1,0-67.2,30.1-67.2,67.2s30.1,67.2,67.2,67.2
		c37.1,0,67.2-30.1,67.2-67.2S254.4,182.7,217.2,182.7z"/>
</g>
<g id="leaf">
	<g>
		<path fill="#009444" d="M225.1,211.6c-2.7,1.3-13.7,11.2-24.9,16.1c-11.2,4.9-19.6,10.8-24,18.1c-4.4,7.3-7.7,21.6-4.2,26.5
			c0.4,2.7-6.6,9.7-6.6,9.7s-0.8,0.6-0.8,2c0,1.3,2.5,5.7,2.5,5.7s2.5-8.3,5.9-12.4c5-7.5,6.2-10,17.1-22.6
			c11.1-12.9,20.4-16.2,27.3-27c-7.1,12.7-15.2,14.2-26.8,27.8c-5.2,6.2-11.5,15.1-14.9,19.9c0,0,0.1,0,0.1,0
			c6.6,4.4,24.3-1.1,33.1-9.5c8.8-8.4,13.5-19.7,15.4-30.4C226.2,224.8,226.2,217.1,225.1,211.6z"/>
	</g>
</g>
<g id="little_bites">
	<ellipse fill="#FFFFFF" cx="185.5" cy="232.2" rx="6.5" ry="6.2"/>
	<ellipse fill="#FFFFFF" cx="197" cy="226.7" rx="6.5" ry="6.2"/>
</g>
<g id="big_bites">
	<ellipse fill="#FFFFFF" cx="218.2" cy="219.1" rx="18.3" ry="14.8"/>
</g>
<g id="ant">
	<g>
		<path fill="#010101" d="M179.1,261.9c0,0.4,0.3,0.6,0.6,0.7c0.1,0,6.8,0.2,12.3,2.6c4.7,2.1,7.3,2.5,9.3,2.5c0.1,0,0.2,0,0.2,0
			c-0.4,0.5-0.7,1-0.9,1.5c-0.5,0.8,0,0.5-1,1.5l-1.5,0.8l1.7,0.3l-1.3,0.7c2.6-0.2,3,1.8,5.1,2c2.7,0.3,4.8,0.1,5,0
			c1.6-0.5,3-1.3,4-2.3c0,0,0,0,0,0.1c-0.1,0.8,0,1.6,0.5,2.4c-1.9-0.3-3.7-0.4-4.3-0.2c-0.7,0.2-1.5,0.5-1.2,1.5c0,0.1,0,0.2,0,0.3
			c-0.2,1.2-4.2,11.7-6.1,12.7c-1.3,0.7-1.8,0.6-2.8,0.3c-0.5-0.1-1.1-0.3-1.9-0.4c-0.3,0-0.7,0.2-0.7,0.6c0,0.4,0.2,0.7,0.6,0.7
			c0.7,0,1.2,0.2,1.7,0.3c0.5,0.1,1,0.3,1.5,0.3c0.6,0,1.3-0.2,2.2-0.7c2.6-1.5,6.6-13.1,6.7-13.6c0.1-0.3,0-0.5,0-0.7
			c0.1,0,0.2-0.1,0.4-0.1c0.5-0.2,2.5,0,5.1,0.4c0.7,0.7,1.7,1.3,2.8,1.7c-0.1,0.2-0.3,0.4-0.4,0.5c-1-0.5-1.6-0.7-1.9-0.2l-0.3,0.4
			l0.4,0.4c0.1,0.1,0.3,0.2,0.5,0.2c0.1,0.1,0.4,0.2,0.9,0.4c0.1,0.1,0.2,0.1,0.4,0.1c0.1,0,0.3,0,0.4-0.1c0.3-0.2,0.7-0.6,1.1-1.3
			c0.2,0.1,0.5,0.1,0.7,0.2c-1.6,3.4-4.3,9-4.8,10.7c-0.1,0.2-0.1,0.4-0.2,0.6c-0.5,1.6-0.6,2-6.3,1.8c-0.3-0.1-0.6,0.3-0.7,0.6
			c0,0.4,0.3,0.6,0.6,0.7c0.9,0,1.8,0.1,2.5,0.1c3.8,0,4.5-0.7,5.1-2.8c0.1-0.2,0.1-0.4,0.2-0.6c0.5-1.6,3.3-7.5,4.9-10.9
			c0.8,0.1,1.6,0.2,2.4,0.1c0.2,0,0.3,0,0.5,0c1-0.1,1.9-0.3,2.6-0.6c0,0.4,0,0.9,0,1.3c-1.2,4.6-2.4,14.2-3,19
			c-0.8,1.5-1.9,3.2-2.3,3.5c-0.3,0.2-0.4,0.6-0.3,0.9c0.1,0.2,0.3,0.3,0.6,0.3c0.1,0,0.2,0,0.3-0.1c1-0.5,2.4-3.3,2.9-4.1l0.1-0.2
			c0.8-6.1,1.7-12.5,2.5-16.6c0.9,2.2,2.7,4.5,5.1,6.3c5.1,3.9,12.5,5.8,14.9,2.7c0.2-0.2,0.3-0.5,0.4-0.7c0.4,0.6,1.4,1.8,3.7,1.8
			c0.5,0,1.1-0.1,1.8-0.2c0.3-0.1,0.6-0.4,0.5-0.8c-0.1-0.3-0.4-0.6-0.8-0.5c-3.5,0.8-4.2-1.3-4.3-1.3l-0.6-1.1
			c-0.1-3.2-2.5-7.5-6-10.5l-1.2-2.1c1.3-1,2.5-1.8,3-2.1c1.5,1.3,9.3,10.8,14.1,16.7c0.1,0.1,2.4,4.1,8.5,4.1c0.4,0,0.9,0,1.4-0.1
			c0.4,0,0.6-0.3,0.6-0.7c0-0.4-0.3-0.6-0.7-0.6c-6.3,0.6-8.7-3.5-8.8-3.5c-13.9-17.3-14.7-17.3-15-17.3c-0.5,0-1.8,0.8-3.8,2.3
			l-4.4-7.7c-0.1-0.2-0.2-0.7-0.7-0.9c-0.5-0.2-1-0.1-1.7,0.3l-0.1,0.1l-4.8,5.5c-0.4-0.5-0.9-1-1.6-1.4c-0.3-2.1-0.7-5.1-1.6-6.3
			c-0.5-0.8-1-1.4-1.6-1.3c-0.5,0.1-0.7,0.6-0.8,1c0,0.1-0.1,0.3-0.2,0.5c-0.1,0.2-0.3,0.8-0.7,2c-0.3,0.8-0.5,1.5-0.7,2.2
			c-2.7-0.3-5.1,0.3-6.6,1.4c0.3-0.8,0.3-1.6,0.1-2.4c-0.7-2.7-4.4-4-8.2-2.9c-0.3,0.1-0.5,0.2-0.8,0.3c-6.5-9.5-14-14-14.3-14.2
			c-0.3-0.2-0.7-0.1-0.9,0.2c-0.2,0.3-0.1,0.7,0.2,0.9c0.1,0,7.4,4.6,13.7,13.7c-0.5,0.2-0.9,0.5-1.3,0.8c-0.1,0-0.2-0.1-0.3-0.1
			c-2,0.2-4.5,0.1-10-2.3c-5.8-2.6-12.5-2.7-12.8-2.8C179.4,261.3,179.1,261.5,179.1,261.9z M224.9,269.8c-0.9-0.4-1.8-0.7-2.9-1
			c0.2-0.7,0.4-1.3,0.7-2.1c0.3-0.9,0.5-1.7,0.6-1.9c0-0.1,0.1-0.2,0.1-0.3c0.1,0.1,0.1,0.2,0.2,0.4
			C224.3,265.8,224.7,267.9,224.9,269.8z M238.6,275.6c-0.1,0.1-0.2,0.2-0.3,0.2c-3.4-1.9-6.9-2.5-9.3-1.5c0-0.4-0.1-0.7-0.3-1.1
			l5-5.7c0.3-0.1,0.4-0.1,0.4-0.1l0.1,0.3L238.6,275.6z"/>
	</g>
</g>
<g id="lettering">
	<text transform="matrix(1 0 0 1 160.3335 229.3332)" font-family="'Dosis-Regular'" font-size="32">cut &amp; run</text>
</g>
</svg>
