<?xml version="1.0" encoding="utf-8"?>
<!-- Generator: Adobe Illustrator 17.1.0, SVG Export Plug-In . SVG Version: 6.00 Build 0)  -->
<!DOCTYPE svg PUBLIC "-//W3C//DTD SVG 1.1//EN" "http://www.w3.org/Graphics/SVG/1.1/DTD/svg11.dtd">
<svg version="1.1" xmlns="http://www.w3.org/2000/svg" xmlns:xlink="http://www.w3.org/1999/xlink" x="0px" y="0px"
	 viewBox="0 0 118 97.8" enable-background="new 0 0 118 97.8" xml:space="preserve">
<g id="Layer_1">
	<g id="Captions">
	</g>
</g>
<g id="Layer_2">
	<g id="Your_Icon">
		<g>
			<path fill="#00A651" d="M29.3,56.8l-4.4-4.1c1.2-1.7,2.4-4.3,2.4-6.5c0-5.7-4.7-10.4-10.4-10.4c-5.7,0-10.4,4.7-10.4,10.4
				c0,5.7,4.7,10.4,10.4,10.4c1.6,0,3.7-0.9,5.1-1.5l4.7,4.1c0.5,0.5,1.4,1.2,2.1,1.2c0.7,0,0.8-0.1,1.3-0.6
				C31.1,58.8,30.3,57.8,29.3,56.8z M10.7,46.2c0-3.4,2.8-6.2,6.2-6.2c3.4,0,6.2,2.8,6.2,6.2c0,3.4-2.8,6.2-6.2,6.2
				C13.5,52.5,10.7,49.7,10.7,46.2z"/>
		</g>
	</g>
</g>
<g id="Layer_3">
	<circle fill="#FFFFFF" cx="17" cy="46.3" r="7.2"/>
</g>
<g id="Layer_4">
	<text transform="matrix(1 0 0 1 31.521 49.875)" font-family="'Dosis-Regular'" font-size="19">new search</text>
</g>
</svg>
